<?xml version="1.0" encoding="utf-8"?>
<svg xmlns="http://www.w3.org/2000/svg" width="75.167" height="370.345" viewBox="0 0 75.167 370.345">
  <g id="Group_1807" data-name="Group 1807" transform="translate(-368.747 -4304.774)" style="mix-blend-mode: multiply;isolation: isolate">
    <g id="Group_1801" data-name="Group 1801" style="mix-blend-mode: multiply;isolation: isolate">
      <g id="Group_1797" data-name="Group 1797">
        <circle id="Ellipse_303" data-name="Ellipse 303" cx="3.424" cy="3.424" r="3.424" transform="translate(368.747 4441.085)" fill="#ff9e1b"></circle>
        <circle id="Ellipse_304" data-name="Ellipse 304" cx="3.424" cy="3.424" r="3.424" transform="translate(368.747 4418.367)" fill="#ff9e1b"></circle>
        <circle id="Ellipse_305" data-name="Ellipse 305" cx="3.424" cy="3.424" r="3.424" transform="translate(368.747 4395.648)" fill="#ff9e1b"></circle>
        <circle id="Ellipse_306" data-name="Ellipse 306" cx="3.424" cy="3.424" r="3.424" transform="translate(368.747 4372.93)" fill="#ff9e1b"></circle>
        <circle id="Ellipse_307" data-name="Ellipse 307" cx="3.424" cy="3.424" r="3.424" transform="translate(368.747 4350.211)" fill="#ff9e1b"></circle>
        <circle id="Ellipse_308" data-name="Ellipse 308" cx="3.424" cy="3.424" r="3.424" transform="translate(368.747 4327.493)" fill="#ff9e1b"></circle>
        <circle id="Ellipse_309" data-name="Ellipse 309" cx="3.424" cy="3.424" r="3.424" transform="translate(368.747 4304.774)" fill="#ff9e1b"></circle>
      </g>
      <g id="Group_1798" data-name="Group 1798">
        <circle id="Ellipse_310" data-name="Ellipse 310" cx="3.424" cy="3.424" r="3.424" transform="translate(391.521 4441.085)" fill="#ff9e1b"></circle>
        <circle id="Ellipse_311" data-name="Ellipse 311" cx="3.424" cy="3.424" r="3.424" transform="translate(391.521 4418.367)" fill="#ff9e1b"></circle>
        <circle id="Ellipse_312" data-name="Ellipse 312" cx="3.424" cy="3.424" r="3.424" transform="translate(391.521 4395.648)" fill="#ff9e1b"></circle>
        <circle id="Ellipse_313" data-name="Ellipse 313" cx="3.424" cy="3.424" r="3.424" transform="translate(391.521 4372.93)" fill="#ff9e1b"></circle>
        <circle id="Ellipse_314" data-name="Ellipse 314" cx="3.424" cy="3.424" r="3.424" transform="translate(391.521 4350.211)" fill="#ff9e1b"></circle>
        <circle id="Ellipse_315" data-name="Ellipse 315" cx="3.424" cy="3.424" r="3.424" transform="translate(391.521 4327.493)" fill="#ff9e1b"></circle>
        <circle id="Ellipse_316" data-name="Ellipse 316" cx="3.424" cy="3.424" r="3.424" transform="translate(391.521 4304.774)" fill="#ff9e1b"></circle>
      </g>
      <g id="Group_1799" data-name="Group 1799">
        <circle id="Ellipse_317" data-name="Ellipse 317" cx="3.424" cy="3.424" r="3.424" transform="translate(414.294 4441.085)" fill="#ff9e1b"></circle>
        <circle id="Ellipse_318" data-name="Ellipse 318" cx="3.424" cy="3.424" r="3.424" transform="translate(414.294 4418.367)" fill="#ff9e1b"></circle>
        <circle id="Ellipse_319" data-name="Ellipse 319" cx="3.424" cy="3.424" r="3.424" transform="translate(414.294 4395.648)" fill="#ff9e1b"></circle>
        <circle id="Ellipse_320" data-name="Ellipse 320" cx="3.424" cy="3.424" r="3.424" transform="translate(414.294 4372.93)" fill="#ff9e1b"></circle>
        <circle id="Ellipse_321" data-name="Ellipse 321" cx="3.424" cy="3.424" r="3.424" transform="translate(414.294 4350.211)" fill="#ff9e1b"></circle>
        <circle id="Ellipse_322" data-name="Ellipse 322" cx="3.424" cy="3.424" r="3.424" transform="translate(414.294 4327.493)" fill="#ff9e1b"></circle>
        <circle id="Ellipse_323" data-name="Ellipse 323" cx="3.424" cy="3.424" r="3.424" transform="translate(414.294 4304.774)" fill="#ff9e1b"></circle>
      </g>
      <g id="Group_1800" data-name="Group 1800">
        <circle id="Ellipse_324" data-name="Ellipse 324" cx="3.424" cy="3.424" r="3.424" transform="translate(437.067 4441.085)" fill="#ff9e1b"></circle>
        <circle id="Ellipse_325" data-name="Ellipse 325" cx="3.424" cy="3.424" r="3.424" transform="translate(437.067 4418.367)" fill="#ff9e1b"></circle>
        <circle id="Ellipse_326" data-name="Ellipse 326" cx="3.424" cy="3.424" r="3.424" transform="translate(437.067 4395.648)" fill="#ff9e1b"></circle>
        <circle id="Ellipse_327" data-name="Ellipse 327" cx="3.424" cy="3.424" r="3.424" transform="translate(437.067 4372.93)" fill="#ff9e1b"></circle>
        <circle id="Ellipse_328" data-name="Ellipse 328" cx="3.424" cy="3.424" r="3.424" transform="translate(437.067 4350.211)" fill="#ff9e1b"></circle>
        <circle id="Ellipse_329" data-name="Ellipse 329" cx="3.424" cy="3.424" r="3.424" transform="translate(437.067 4327.493)" fill="#ff9e1b"></circle>
        <circle id="Ellipse_330" data-name="Ellipse 330" cx="3.424" cy="3.424" r="3.424" transform="translate(437.067 4304.774)" fill="#ff9e1b"></circle>
      </g>
    </g>
    <g id="Group_1806" data-name="Group 1806" style="mix-blend-mode: multiply;isolation: isolate">
      <g id="Group_1802" data-name="Group 1802">
        <circle id="Ellipse_331" data-name="Ellipse 331" cx="3.424" cy="3.424" r="3.424" transform="translate(368.747 4668.271)" fill="#ff9e1b"></circle>
        <circle id="Ellipse_332" data-name="Ellipse 332" cx="3.424" cy="3.424" r="3.424" transform="translate(368.747 4645.553)" fill="#ff9e1b"></circle>
        <circle id="Ellipse_333" data-name="Ellipse 333" cx="3.424" cy="3.424" r="3.424" transform="translate(368.747 4622.834)" fill="#ff9e1b"></circle>
        <circle id="Ellipse_334" data-name="Ellipse 334" cx="3.424" cy="3.424" r="3.424" transform="translate(368.747 4600.116)" fill="#ff9e1b"></circle>
        <circle id="Ellipse_335" data-name="Ellipse 335" cx="3.424" cy="3.424" r="3.424" transform="translate(368.747 4577.397)" fill="#ff9e1b"></circle>
        <circle id="Ellipse_336" data-name="Ellipse 336" cx="3.424" cy="3.424" r="3.424" transform="translate(368.747 4554.678)" fill="#ff9e1b"></circle>
        <circle id="Ellipse_337" data-name="Ellipse 337" cx="3.424" cy="3.424" r="3.424" transform="translate(368.747 4531.96)" fill="#ff9e1b"></circle>
        <circle id="Ellipse_338" data-name="Ellipse 338" cx="3.424" cy="3.424" r="3.424" transform="translate(368.747 4509.241)" fill="#ff9e1b"></circle>
        <circle id="Ellipse_339" data-name="Ellipse 339" cx="3.424" cy="3.424" r="3.424" transform="translate(368.747 4486.522)" fill="#ff9e1b"></circle>
        <circle id="Ellipse_340" data-name="Ellipse 340" cx="3.424" cy="3.424" r="3.424" transform="translate(368.747 4463.804)" fill="#ff9e1b"></circle>
      </g>
      <g id="Group_1803" data-name="Group 1803">
        <circle id="Ellipse_341" data-name="Ellipse 341" cx="3.424" cy="3.424" r="3.424" transform="translate(391.521 4668.271)" fill="#ff9e1b"></circle>
        <circle id="Ellipse_342" data-name="Ellipse 342" cx="3.424" cy="3.424" r="3.424" transform="translate(391.521 4645.553)" fill="#ff9e1b"></circle>
        <circle id="Ellipse_343" data-name="Ellipse 343" cx="3.424" cy="3.424" r="3.424" transform="translate(391.521 4622.834)" fill="#ff9e1b"></circle>
        <circle id="Ellipse_344" data-name="Ellipse 344" cx="3.424" cy="3.424" r="3.424" transform="translate(391.521 4600.116)" fill="#ff9e1b"></circle>
        <circle id="Ellipse_345" data-name="Ellipse 345" cx="3.424" cy="3.424" r="3.424" transform="translate(391.521 4577.397)" fill="#ff9e1b"></circle>
        <circle id="Ellipse_346" data-name="Ellipse 346" cx="3.424" cy="3.424" r="3.424" transform="translate(391.521 4554.678)" fill="#ff9e1b"></circle>
        <circle id="Ellipse_347" data-name="Ellipse 347" cx="3.424" cy="3.424" r="3.424" transform="translate(391.521 4531.96)" fill="#ff9e1b"></circle>
        <circle id="Ellipse_348" data-name="Ellipse 348" cx="3.424" cy="3.424" r="3.424" transform="translate(391.521 4509.241)" fill="#ff9e1b"></circle>
        <circle id="Ellipse_349" data-name="Ellipse 349" cx="3.424" cy="3.424" r="3.424" transform="translate(391.521 4486.522)" fill="#ff9e1b"></circle>
        <circle id="Ellipse_350" data-name="Ellipse 350" cx="3.424" cy="3.424" r="3.424" transform="translate(391.521 4463.804)" fill="#ff9e1b"></circle>
      </g>
      <g id="Group_1804" data-name="Group 1804">
        <circle id="Ellipse_351" data-name="Ellipse 351" cx="3.424" cy="3.424" r="3.424" transform="translate(414.294 4668.271)" fill="#ff9e1b"></circle>
        <circle id="Ellipse_352" data-name="Ellipse 352" cx="3.424" cy="3.424" r="3.424" transform="translate(414.294 4645.553)" fill="#ff9e1b"></circle>
        <circle id="Ellipse_353" data-name="Ellipse 353" cx="3.424" cy="3.424" r="3.424" transform="translate(414.294 4622.834)" fill="#ff9e1b"></circle>
        <circle id="Ellipse_354" data-name="Ellipse 354" cx="3.424" cy="3.424" r="3.424" transform="translate(414.294 4600.116)" fill="#ff9e1b"></circle>
        <circle id="Ellipse_355" data-name="Ellipse 355" cx="3.424" cy="3.424" r="3.424" transform="translate(414.294 4577.397)" fill="#ff9e1b"></circle>
        <circle id="Ellipse_356" data-name="Ellipse 356" cx="3.424" cy="3.424" r="3.424" transform="translate(414.294 4554.678)" fill="#ff9e1b"></circle>
        <circle id="Ellipse_357" data-name="Ellipse 357" cx="3.424" cy="3.424" r="3.424" transform="translate(414.294 4531.96)" fill="#ff9e1b"></circle>
        <circle id="Ellipse_358" data-name="Ellipse 358" cx="3.424" cy="3.424" r="3.424" transform="translate(414.294 4509.241)" fill="#ff9e1b"></circle>
        <circle id="Ellipse_359" data-name="Ellipse 359" cx="3.424" cy="3.424" r="3.424" transform="translate(414.294 4486.522)" fill="#ff9e1b"></circle>
        <circle id="Ellipse_360" data-name="Ellipse 360" cx="3.424" cy="3.424" r="3.424" transform="translate(414.294 4463.804)" fill="#ff9e1b"></circle>
      </g>
      <g id="Group_1805" data-name="Group 1805">
        <circle id="Ellipse_361" data-name="Ellipse 361" cx="3.424" cy="3.424" r="3.424" transform="translate(437.067 4668.271)" fill="#ff9e1b"></circle>
        <circle id="Ellipse_362" data-name="Ellipse 362" cx="3.424" cy="3.424" r="3.424" transform="translate(437.067 4645.553)" fill="#ff9e1b"></circle>
        <circle id="Ellipse_363" data-name="Ellipse 363" cx="3.424" cy="3.424" r="3.424" transform="translate(437.067 4622.834)" fill="#ff9e1b"></circle>
        <circle id="Ellipse_364" data-name="Ellipse 364" cx="3.424" cy="3.424" r="3.424" transform="translate(437.067 4600.116)" fill="#ff9e1b"></circle>
        <circle id="Ellipse_365" data-name="Ellipse 365" cx="3.424" cy="3.424" r="3.424" transform="translate(437.067 4577.397)" fill="#ff9e1b"></circle>
        <circle id="Ellipse_366" data-name="Ellipse 366" cx="3.424" cy="3.424" r="3.424" transform="translate(437.067 4554.678)" fill="#ff9e1b"></circle>
        <circle id="Ellipse_367" data-name="Ellipse 367" cx="3.424" cy="3.424" r="3.424" transform="translate(437.067 4531.96)" fill="#ff9e1b"></circle>
        <circle id="Ellipse_368" data-name="Ellipse 368" cx="3.424" cy="3.424" r="3.424" transform="translate(437.067 4509.241)" fill="#ff9e1b"></circle>
        <circle id="Ellipse_369" data-name="Ellipse 369" cx="3.424" cy="3.424" r="3.424" transform="translate(437.067 4486.522)" fill="#ff9e1b"></circle>
        <circle id="Ellipse_370" data-name="Ellipse 370" cx="3.424" cy="3.424" r="3.424" transform="translate(437.067 4463.804)" fill="#ff9e1b"></circle>
      </g>
    </g>
  </g>
</svg>