<?xml version="1.0" encoding="utf-8"?>
<svg xmlns="http://www.w3.org/2000/svg" xmlns:xlink="http://www.w3.org/1999/xlink" style="margin: auto; background: rgb(241, 242, 243); display: block; z-index: 1; position: relative; shape-rendering: auto;" width="1879" height="949" preserveAspectRatio="xMidYMid" viewBox="0 0 1879 949">
<g transform="translate(939.5,474.5) scale(1,1) translate(-939.5,-474.5)"><g transform="translate(1459.1454438888727,71.42167616512012) scale(100)" opacity="0.86">
  <path d="M6.379204999999999 0 C6.379204999999999 1.5125949999999997 6.6225760500280115 2.0769518043626767 5.866278550028012 3.3868974999999995 S4.499548195637323 4.768256085948709 3.1896025000000003 5.524553585948708 S1.5125950000000001 6.773795 4.147753182415173e-16 6.773795 S-1.8796568043626753 6.280851085948709 -3.189602499999998 5.524553585948709 S-5.10998105002801 4.696843195637324 -5.86627855002801 3.386897500000002 S-6.379204999999999 1.5125950000000006 -6.379204999999999 7.81227298435479e-16 S-6.622576050028012 -2.0769518043626753 -5.866278550028013 -3.386897499999998 S-4.499548195637325 -4.768256085948708 -3.189602500000002 -5.524553585948708 S-1.512595000000001 -6.773795 -1.2443259547245516e-15 -6.773795 S1.8796568043626718 -6.2808510859487106 3.189602499999995 -5.524553585948712 S5.109981050028009 -4.696843195637325 5.866278550028009 -3.386897500000003 S6.379204999999999 -1.5125950000000012 6.379204999999999 -1.562454596870958e-15" fill="#1e3d7d" stroke-width="0">
    <animateTransform attributeName="transform" type="rotate" dur="10s" repeatCount="indefinite" values="0;60"></animateTransform>
  </path>
</g><g transform="translate(1563.0745326666474,-9.193988601855892) scale(100)" opacity="0.86">
  <path d="M7.655046 0 C7.655046 1.815114 7.947091260033614 2.492342165235211 7.039534260033614 4.064276999999999 S5.399457834764788 5.721907303138451 3.8275230000000007 6.629464303138451 S1.8151140000000003 8.128554 4.977303818898207e-16 8.128554 S-2.2555881652352103 7.537021303138451 -3.827522999999998 6.629464303138452 S-6.1319772600336115 5.63621183476479 -7.039534260033612 4.064277000000002 S-7.655046 1.8151140000000008 -7.655046 9.374727581225749e-16 S-7.9470912600336145 -2.4923421652352094 -7.039534260033615 -4.064276999999997 S-5.399457834764791 -5.721907303138449 -3.8275230000000033 -6.62946430313845 S-1.8151140000000014 -8.128554 -1.493191145669462e-15 -8.128554 S2.2555881652352068 -7.537021303138453 3.827522999999995 -6.629464303138454 S6.131977260033611 -5.63621183476479 7.039534260033611 -4.064277000000003 S7.655045999999999 -1.8151140000000017 7.655046 -1.8749455162451497e-15" fill="#1d69ae" stroke-width="0">
    <animateTransform attributeName="transform" type="rotate" dur="5s" repeatCount="indefinite" values="0;60"></animateTransform>
  </path>
</g><g transform="translate(1812.5043457333063,-202.67158404259817) scale(100)" opacity="0.86">
  <path d="M10.717064399999998 0 C10.717064399999998 2.5411595999999994 11.12592776404706 3.489279031329296 9.85534796404706 5.689987799999998 S7.559240968670702 8.01067022439383 5.3585322 9.281250024393831 S2.5411596000000003 11.379975599999998 6.968225346457489e-16 11.379975599999998 S-3.157823431329294 10.55182982439383 -5.358532199999996 9.281250024393831 S-8.584768164047055 7.8906965686707045 -9.855347964047056 5.689987800000003 S-10.717064399999998 2.5411596000000007 -10.717064399999998 1.3124618613716048e-15 S-11.125927764047058 -3.489279031329293 -9.85534796404706 -5.6899877999999955 S-7.559240968670705 -8.010670224393829 -5.3585322000000035 -9.28125002439383 S-2.5411596000000016 -11.379975599999998 -2.0904676039372465e-15 -11.379975599999998 S3.1578234313292888 -10.551829824393833 5.358532199999992 -9.281250024393835 S8.584768164047054 -7.890696568670705 9.855347964047054 -5.689987800000004 S10.717064399999998 -2.541159600000002 10.717064399999998 -2.6249237227432095e-15" fill="#0d98dd" stroke-width="0">
    <animateTransform attributeName="transform" type="rotate" dur="3.3333333333333335s" repeatCount="indefinite" values="0;60"></animateTransform>
  </path>
</g></g>
</svg>